Coordinates
version=1
nRows=17
nColumns=40
inDegrees=yes

Units are S.I. units (second, meters, Newtons, ...)
If the header above contains a line with 'inDegrees', this indicates whether rotational values are in degrees (yes) or radians (no).

endheader
time	pelvis_tilt	pelvis_list	pelvis_rotation	pelvis_tx	pelvis_ty	pelvis_tz	hip_flexion_r	hip_adduction_r	hip_rotation_r	knee_angle_r	knee_angle_r_beta	ankle_angle_r	subtalar_angle_r	mtp_angle_r	hip_flexion_l	hip_adduction_l	hip_rotation_l	knee_angle_l	knee_angle_l_beta	ankle_angle_l	subtalar_angle_l	mtp_angle_l	lumbar_extension	lumbar_bending	lumbar_rotation	arm_flex_r	arm_add_r	arm_rot_r	elbow_flex_r	pro_sup_r	wrist_flex_r	wrist_dev_r	arm_flex_l	arm_add_l	arm_rot_l	elbow_flex_l	pro_sup_l	wrist_flex_l	wrist_dev_l
      9.36500000	     85.94387478	     32.82762413	     87.93798973	      0.44547727	      0.93851085	      0.56420191	    117.08876821	    -35.36203265	      4.64785066	     50.42856631	      0.88014452	    -10.06656864	      0.00000000	      0.00000000	    117.40721107	    -46.81980467	      4.00789063	     59.76011164	      1.04301071	     -2.39959731	      0.00000000	      0.00000000	     -6.47910277	    -11.24442083	      9.42625721	     53.91513032	    -24.74386106	     87.65239537	     24.64376865	     69.07081837	      0.00000000	      0.00000000	     59.70464278	    -13.59708937	     81.21424506	     17.69873439	     79.74134043	      0.00000000	      0.00000000
      9.37000000	     85.98235216	     32.59784423	     87.75918979	      0.44580802	      0.93879862	      0.56416270	    117.14376152	    -35.16675732	      4.55480298	     50.26949502	      0.87736820	    -10.11914065	      0.00000000	      0.00000000	    117.70627337	    -46.87639356	      4.27216445	     59.66629126	      1.04137323	     -2.39703830	      0.00000000	      0.00000000	     -6.21459247	    -11.19143385	      9.59405123	     53.91306768	    -24.80644384	     87.79498729	     24.79117465	     68.21565514	      0.00000000	      0.00000000	     59.40503653	    -13.39580345	     80.07874113	     17.40897477	     78.21963284	      0.00000000	      0.00000000
      9.37500000	     85.95558395	     32.76719524	     87.97746883	      0.44541715	      0.93855616	      0.56421002	    117.15052818	    -35.43257567	      4.59734773	     50.45132333	      0.88054170	     -9.93832988	      0.00000000	      0.00000000	    117.42175231	    -46.73309460	      4.05898192	     59.72094364	      1.04232710	     -2.41214058	      0.00000000	      0.00000000	     -6.44198216	    -11.20260513	      9.34854215	     53.92110766	    -24.76520581	     87.65502314	     24.72318789	     68.67482861	      0.00000000	      0.00000000	     59.67827982	    -13.59387709	     81.27435517	     17.65727017	     79.68671725	      0.00000000	      0.00000000
      9.38000000	     85.92923532	     32.78433897	     87.87651788	      0.44535734	      0.93880630	      0.56428636	    117.09933988	    -35.31835979	      4.52841361	     50.43221745	      0.88020824	    -10.04883191	      0.00000000	      0.00000000	    117.43258965	    -46.86045321	      4.11253516	     59.71460746	      1.04221651	     -2.42093215	      0.00000000	      0.00000000	     -6.45333261	    -11.21888107	      9.44684887	     53.97256373	    -24.78695310	     87.49258945	     24.72533521	     70.57658544	      0.00000000	      0.00000000	     59.64499178	    -13.54402267	     80.82481941	     17.55553014	     80.75184567	      0.00000000	      0.00000000
      9.38500000	     85.95729362	     32.77279505	     87.91557688	      0.44526142	      0.93874700	      0.56430667	    117.10847504	    -35.41422145	      4.46283862	     50.46961459	      0.88086095	     -9.88079392	      0.00000000	      0.00000000	    117.42530154	    -46.78600256	      4.12902863	     59.70767425	      1.04209550	     -2.39669868	      0.00000000	      0.00000000	     -6.46641635	    -11.16563867	      9.33975262	     53.96561289	    -24.72169266	     87.62182498	     24.68451928	     69.43689493	      0.00000000	      0.00000000	     59.58002188	    -13.64006460	     81.01106405	     17.61073203	     79.70005571	      0.00000000	      0.00000000
      9.39000000	     85.74755510	     32.66089773	     87.67130569	      0.44538504	      0.93941370	      0.56434426	    117.13898542	    -34.95376667	      4.47353886	     50.29870453	      0.87787800	    -10.16625370	      0.00000000	      0.00000000	    117.54109910	    -47.21534395	      4.13927180	     59.70616829	      1.04206922	     -2.41300116	      0.00000000	      0.00000000	     -6.28699984	    -11.38507604	      9.73046811	     53.94828545	    -24.79223177	     87.73230629	     24.78497695	     68.68252887	      0.00000000	      0.00000000	     59.45444544	    -13.52877497	     80.49752315	     17.52266136	     78.92497864	      0.00000000	      0.00000000
      9.39500000	     85.89347483	     32.77969444	     87.83241998	      0.44511087	      0.93909618	      0.56435235	    117.08889221	    -35.25752684	      4.48364120	     50.44630227	      0.88045407	     -9.99649162	      0.00000000	      0.00000000	    117.42517326	    -46.92995027	      4.16450098	     59.72110257	      1.04232987	     -2.41150009	      0.00000000	      0.00000000	     -6.46872572	    -11.21913646	      9.48395312	     53.92970372	    -24.82886173	     87.49837511	     24.80281635	     69.71115143	      0.00000000	      0.00000000	     59.64723488	    -13.55380520	     81.29341786	     17.48826810	     80.36432467	      0.00000000	      0.00000000
      9.40000000	     85.91228104	     32.73905821	     87.80145118	      0.44512128	      0.93913366	      0.56432600	    117.09044339	    -35.25514721	      4.42772390	     50.42202082	      0.88003028	    -10.00219524	      0.00000000	      0.00000000	    117.48470826	    -46.92036701	      4.23893928	     59.70975583	      1.04213183	     -2.41806202	      0.00000000	      0.00000000	     -6.42908006	    -11.18468609	      9.50821784	     53.93246277	    -24.85179462	     87.47569872	     24.82199743	     69.86306132	      0.00000000	      0.00000000	     59.64318429	    -13.55289601	     81.44982947	     17.49875204	     80.11582128	      0.00000000	      0.00000000
      9.40500000	     85.88427886	     32.76298990	     87.77736824	      0.44496960	      0.93929138	      0.56439990	    117.06621608	    -35.21988110	      4.40157002	     50.43736183	      0.88029803	    -10.00019233	      0.00000000	      0.00000000	    117.44580259	    -46.94732470	      4.25444709	     59.71506667	      1.04222453	     -2.39146996	      0.00000000	      0.00000000	     -6.45828493	    -11.20535963	      9.54685611	     53.92485043	    -24.85164317	     87.51399657	     24.82887874	     69.57743576	      0.00000000	      0.00000000	     59.64854962	    -13.54007496	     81.58007135	     17.47799470	     79.90380336	      0.00000000	      0.00000000
      9.41000000	     85.89465492	     32.75629132	     87.76984996	      0.44487082	      0.93935142	      0.56439577	    117.08397804	    -35.23422329	      4.36950968	     50.47836559	      0.88101368	     -9.98923653	      0.00000000	      0.00000000	    117.44442864	    -46.92557603	      4.32024017	     59.69581418	      1.04188851	     -2.38758621	      0.00000000	      0.00000000	     -6.45802350	    -11.18722942	      9.54121525	     53.91121243	    -24.84628398	     87.53460143	     24.81756316	     69.29175909	      0.00000000	      0.00000000	     59.65630619	    -13.54679132	     81.75247398	     17.48261305	     79.65156433	      0.00000000	      0.00000000
      9.41500000	     85.86472720	     32.70724214	     87.71456529	      0.44490366	      0.93950459	      0.56443115	    117.08669230	    -35.14808603	      4.34107891	     50.42506168	      0.88008335	     -9.98149108	      0.00000000	      0.00000000	    117.49711203	    -46.98749203	      4.35919082	     59.68505635	      1.04170075	     -2.35434554	      0.00000000	      0.00000000	     -6.40536400	    -11.20064321	      9.58343796	     53.95254366	    -24.79533307	     87.47006324	     24.71853039	     70.48351267	      0.00000000	      0.00000000	     59.54945121	    -13.51090048	     81.01141490	     17.40701994	     80.60285793	      0.00000000	      0.00000000
      9.42000000	     85.82651917	     32.72262729	     87.75192243	      0.44473698	      0.93955359	      0.56444581	    117.11874286	    -35.16250571	      4.37433204	     50.47458541	      0.88094770	     -9.91203432	      0.00000000	      0.00000000	    117.43206035	    -46.99790646	      4.29139653	     59.69980609	      1.04195818	     -2.35969599	      0.00000000	      0.00000000	     -6.43152867	    -11.23295239	      9.54982712	     53.94616732	    -24.78382071	     87.57207321	     24.73476787	     69.53452409	      0.00000000	      0.00000000	     59.57195325	    -13.57791897	     81.35981382	     17.50932973	     79.76202604	      0.00000000	      0.00000000
      9.42500000	     85.83309002	     32.65707199	     87.74557942	      0.44475706	      0.93960191	      0.56448361	    117.15067517	    -35.15680695	      4.35955880	     50.43605615	      0.88027524	     -9.96405498	      0.00000000	      0.00000000	    117.47342355	    -46.99400562	      4.30629702	     59.65706479	      1.04121220	     -2.40047659	      0.00000000	      0.00000000	     -6.37767427	    -11.21554483	      9.52275833	     53.93954601	    -24.74299993	     87.71327265	     24.72460965	     68.19760536	      0.00000000	      0.00000000	     59.51994984	    -13.66288317	     81.30152006	     17.65673267	     78.89911835	      0.00000000	      0.00000000
      9.43000000	     85.80101272	     32.62681516	     87.73763012	      0.44477726	      0.93959278	      0.56451061	    117.16224464	    -35.13658508	      4.33768885	     50.40123926	      0.87966757	     -9.99374711	      0.00000000	      0.00000000	    117.48414387	    -47.01298957	      4.32594320	     59.65582631	      1.04119059	     -2.41375239	      0.00000000	      0.00000000	     -6.35337217	    -11.22877568	      9.54344233	     53.99104488	    -24.78611875	     87.45270659	     24.70791335	     70.69031188	      0.00000000	      0.00000000	     59.49688413	    -13.54553368	     80.90667803	     17.43929779	     80.54510755	      0.00000000	      0.00000000
      9.43500000	     85.77640333	     32.52969996	     87.74635450	      0.44475637	      0.93966169	      0.56455667	    117.22869148	    -35.11619553	      4.33768825	     50.35801592	      0.87891318	     -9.90709360	      0.00000000	      0.00000000	    117.50821679	    -47.00482509	      4.29917121	     59.60723481	      1.04034251	     -2.32368384	      0.00000000	      0.00000000	     -6.26798257	    -11.24370036	      9.56769981	     53.96919850	    -24.78612941	     87.70517489	     24.71324669	     69.07032225	      0.00000000	      0.00000000	     59.36923952	    -13.55268971	     80.67667711	     17.53330175	     78.86373111	      0.00000000	      0.00000000
      9.44000000	     85.75076308	     32.58664189	     87.71130690	      0.44460153	      0.93977521	      0.56457142	    117.18934535	    -35.07619039	      4.31619654	     50.39630786	      0.87958150	     -9.92783175	      0.00000000	      0.00000000	    117.48631839	    -47.09063020	      4.30436919	     59.64975438	      1.04108461	     -2.33567572	      0.00000000	      0.00000000	     -6.32505739	    -11.27697073	      9.58835919	     53.97005005	    -24.80728903	     87.63261497	     24.78486146	     68.90588930	      0.00000000	      0.00000000	     59.56769056	    -13.68226342	     81.62802852	     17.67871187	     79.55899893	      0.00000000	      0.00000000
      9.44500000	     85.74868595	     32.58199117	     87.73460876	      0.44451082	      0.93976298	      0.56464589	    117.19119539	    -35.10399560	      4.32390342	     50.38799123	      0.87943635	     -9.98417092	      0.00000000	      0.00000000	    117.46044718	    -47.06462779	      4.29459347	     59.63584799	      1.04084190	     -2.37749272	      0.00000000	      0.00000000	     -6.33750718	    -11.27175092	      9.56805719	     53.98750617	    -24.84867132	     87.56748724	     24.83927179	     69.21433165	      0.00000000	      0.00000000	     59.56167701	    -13.63241861	     81.50915977	     17.60205401	     79.98370970	      0.00000000	      0.00000000
